<?xml version="1.0" standalone="no"?>
<!DOCTYPE svg PUBLIC "-//W3C//DTD SVG 20010904//EN"
 "http://www.w3.org/TR/2001/REC-SVG-20010904/DTD/svg10.dtd">
<svg version="1.0" xmlns="http://www.w3.org/2000/svg"
 width="30.000000pt" height="30.000000pt" viewBox="0 0 30.000000 30.000000"
 preserveAspectRatio="xMidYMid meet">

<g transform="translate(0.000000,30.000000) scale(0.100000,-0.100000)"
fill="#000000" stroke="none">
<path d="M0 150 l0 -150 150 0 150 0 0 150 0 150 -150 0 -150 0 0 -150z m237
76 c27 -30 33 -44 33 -82 0 -39 -5 -51 -34 -80 -42 -42 -56 -43 -56 -4 0 19 7
33 20 40 24 13 33 45 22 84 -7 27 -10 28 -72 28 -62 0 -65 -1 -72 -28 -11 -39
-2 -71 22 -84 11 -6 20 -15 20 -20 0 -16 -30 -11 -36 5 -4 8 -11 15 -17 15 -5
0 -2 -9 8 -20 10 -11 24 -20 32 -20 7 0 13 -7 13 -15 0 -22 -16 -18 -51 13
-25 23 -33 38 -36 78 -5 44 -2 54 23 83 35 42 59 52 109 46 30 -3 48 -13 72
-39z"/>
</g>
</svg>
